<mxfile host="app.diagrams.net" modified="2024-03-12T07:32:56.573Z" agent="Mozilla/5.0 (X11; Linux x86_64) AppleWebKit/537.36 (KHTML, like Gecko) Chrome/122.0.0.0 Safari/537.36" etag="kU64Pvi09DizIQw1MOnH" version="24.0.5" type="device">
  <diagram name="Page-1" id="oZTBOMfQCSTYmqwbICvo">
    <mxGraphModel dx="683" dy="425" grid="1" gridSize="10" guides="1" tooltips="1" connect="1" arrows="1" fold="1" page="1" pageScale="1" pageWidth="850" pageHeight="1100" math="0" shadow="0">
      <root>
        <mxCell id="0" />
        <mxCell id="1" parent="0" />
        <mxCell id="DSCQMobVuc5KohE75lGZ-1" value="Node0" style="ellipse;whiteSpace=wrap;html=1;aspect=fixed;fontSize=20;" vertex="1" parent="1">
          <mxGeometry x="190" y="310" width="80" height="80" as="geometry" />
        </mxCell>
        <mxCell id="DSCQMobVuc5KohE75lGZ-2" value="Node1" style="ellipse;whiteSpace=wrap;html=1;aspect=fixed;fontSize=20;" vertex="1" parent="1">
          <mxGeometry x="380" y="90" width="80" height="80" as="geometry" />
        </mxCell>
        <mxCell id="DSCQMobVuc5KohE75lGZ-3" value="Node2" style="ellipse;whiteSpace=wrap;html=1;aspect=fixed;fontSize=20;" vertex="1" parent="1">
          <mxGeometry x="610" y="210" width="80" height="80" as="geometry" />
        </mxCell>
        <mxCell id="DSCQMobVuc5KohE75lGZ-4" value="Node3" style="ellipse;whiteSpace=wrap;html=1;aspect=fixed;fontSize=20;" vertex="1" parent="1">
          <mxGeometry x="450" y="350" width="80" height="80" as="geometry" />
        </mxCell>
        <mxCell id="DSCQMobVuc5KohE75lGZ-5" value="Node4" style="ellipse;whiteSpace=wrap;html=1;aspect=fixed;fontSize=20;" vertex="1" parent="1">
          <mxGeometry x="680" y="460" width="80" height="80" as="geometry" />
        </mxCell>
        <mxCell id="DSCQMobVuc5KohE75lGZ-6" value="Node20" style="ellipse;whiteSpace=wrap;html=1;aspect=fixed;fontSize=20;" vertex="1" parent="1">
          <mxGeometry x="70" y="470" width="80" height="80" as="geometry" />
        </mxCell>
        <mxCell id="DSCQMobVuc5KohE75lGZ-7" value="" style="endArrow=classic;html=1;rounded=0;exitX=0.5;exitY=0;exitDx=0;exitDy=0;" edge="1" parent="1" source="DSCQMobVuc5KohE75lGZ-1" target="DSCQMobVuc5KohE75lGZ-2">
          <mxGeometry width="50" height="50" relative="1" as="geometry">
            <mxPoint x="240" y="310" as="sourcePoint" />
            <mxPoint x="290" y="260" as="targetPoint" />
          </mxGeometry>
        </mxCell>
        <mxCell id="DSCQMobVuc5KohE75lGZ-8" value="&lt;b&gt;Prompt&lt;/b&gt;: Generate a dog image&lt;div&gt;&lt;b&gt;Input: ...&lt;/b&gt;&lt;/div&gt;&lt;div&gt;&lt;b&gt;Model&lt;/b&gt;: SD 2.0,&amp;nbsp;&lt;span style=&quot;background-color: initial;&quot;&gt;http://....&amp;nbsp;&lt;/span&gt;&lt;/div&gt;&lt;div&gt;&lt;b&gt;Weight address&lt;/b&gt;: http://....&amp;nbsp;&lt;/div&gt;&lt;div&gt;&lt;b&gt;Step: &lt;/b&gt;0&lt;/div&gt;&lt;div&gt;&lt;b&gt;Gas&lt;/b&gt;: xx&lt;/div&gt;" style="text;html=1;align=left;verticalAlign=middle;whiteSpace=wrap;rounded=0;rotation=-45;" vertex="1" parent="1">
          <mxGeometry x="189" y="159" width="180" height="80" as="geometry" />
        </mxCell>
        <mxCell id="DSCQMobVuc5KohE75lGZ-9" value="" style="endArrow=classic;html=1;rounded=0;entryX=0;entryY=0;entryDx=0;entryDy=0;" edge="1" parent="1" source="DSCQMobVuc5KohE75lGZ-2" target="DSCQMobVuc5KohE75lGZ-3">
          <mxGeometry width="50" height="50" relative="1" as="geometry">
            <mxPoint x="529" y="232" as="sourcePoint" />
            <mxPoint x="690" y="80" as="targetPoint" />
          </mxGeometry>
        </mxCell>
        <mxCell id="DSCQMobVuc5KohE75lGZ-10" value="&lt;b&gt;Prompt&lt;/b&gt;: Generate a dog image&lt;div&gt;&lt;b&gt;Input: ...&lt;/b&gt;&lt;/div&gt;&lt;div&gt;&lt;b&gt;Model&lt;/b&gt;: SD 2.0,&amp;nbsp;&lt;span style=&quot;background-color: initial;&quot;&gt;http://....&amp;nbsp;&lt;/span&gt;&lt;/div&gt;&lt;div&gt;&lt;b&gt;Weight address&lt;/b&gt;: http://....&amp;nbsp;&lt;/div&gt;&lt;div&gt;&lt;b&gt;Step: 1&lt;/b&gt;&lt;/div&gt;&lt;div&gt;&lt;b&gt;Gas&lt;/b&gt;: xx&lt;b&gt;&lt;br&gt;&lt;/b&gt;&lt;/div&gt;" style="text;html=1;align=left;verticalAlign=middle;whiteSpace=wrap;rounded=0;rotation=25;" vertex="1" parent="1">
          <mxGeometry x="470" y="100" width="180" height="80" as="geometry" />
        </mxCell>
        <mxCell id="DSCQMobVuc5KohE75lGZ-11" value="" style="endArrow=classic;html=1;rounded=0;entryX=1;entryY=0;entryDx=0;entryDy=0;exitX=0;exitY=1;exitDx=0;exitDy=0;" edge="1" parent="1" source="DSCQMobVuc5KohE75lGZ-3" target="DSCQMobVuc5KohE75lGZ-4">
          <mxGeometry width="50" height="50" relative="1" as="geometry">
            <mxPoint x="530" y="346" as="sourcePoint" />
            <mxPoint x="696" y="422" as="targetPoint" />
          </mxGeometry>
        </mxCell>
        <mxCell id="DSCQMobVuc5KohE75lGZ-12" value="&lt;b&gt;Prompt&lt;/b&gt;: Generate a dog image&lt;div&gt;&lt;b&gt;Input: ...&lt;/b&gt;&lt;/div&gt;&lt;div&gt;&lt;b&gt;Model&lt;/b&gt;: SD 2.0,&amp;nbsp;&lt;span style=&quot;background-color: initial;&quot;&gt;http://....&amp;nbsp;&lt;/span&gt;&lt;/div&gt;&lt;div&gt;&lt;b&gt;Weight address&lt;/b&gt;: http://....&amp;nbsp;&lt;/div&gt;&lt;div&gt;&lt;b&gt;Step: 2&lt;/b&gt;&lt;/div&gt;&lt;b&gt;Gas&lt;/b&gt;: xx" style="text;html=1;align=left;verticalAlign=middle;whiteSpace=wrap;rounded=0;rotation=-45;" vertex="1" parent="1">
          <mxGeometry x="540" y="300" width="180" height="80" as="geometry" />
        </mxCell>
        <mxCell id="DSCQMobVuc5KohE75lGZ-13" value="" style="endArrow=classic;html=1;rounded=0;entryX=-0.062;entryY=0.431;entryDx=0;entryDy=0;exitX=0.969;exitY=0.817;exitDx=0;exitDy=0;exitPerimeter=0;entryPerimeter=0;" edge="1" parent="1" source="DSCQMobVuc5KohE75lGZ-4" target="DSCQMobVuc5KohE75lGZ-5">
          <mxGeometry width="50" height="50" relative="1" as="geometry">
            <mxPoint x="632" y="288" as="sourcePoint" />
            <mxPoint x="528" y="372" as="targetPoint" />
          </mxGeometry>
        </mxCell>
        <mxCell id="DSCQMobVuc5KohE75lGZ-14" value="&lt;b&gt;Prompt&lt;/b&gt;: Generate a dog image&lt;div&gt;&lt;b&gt;Input: ...&lt;/b&gt;&lt;/div&gt;&lt;div&gt;&lt;b&gt;Model&lt;/b&gt;: SD 2.0,&amp;nbsp;&lt;span style=&quot;background-color: initial;&quot;&gt;http://....&amp;nbsp;&lt;/span&gt;&lt;/div&gt;&lt;div&gt;&lt;b&gt;Weight address&lt;/b&gt;: http://....&amp;nbsp;&lt;/div&gt;&lt;div&gt;&lt;b&gt;Step: 3&lt;/b&gt;&lt;/div&gt;&lt;b&gt;Gas&lt;/b&gt;: xx" style="text;html=1;align=left;verticalAlign=middle;whiteSpace=wrap;rounded=0;rotation=30;" vertex="1" parent="1">
          <mxGeometry x="490" y="460" width="180" height="80" as="geometry" />
        </mxCell>
        <mxCell id="DSCQMobVuc5KohE75lGZ-15" value="" style="endArrow=classic;html=1;rounded=0;exitX=0.5;exitY=1;exitDx=0;exitDy=0;" edge="1" parent="1" source="DSCQMobVuc5KohE75lGZ-5">
          <mxGeometry width="50" height="50" relative="1" as="geometry">
            <mxPoint x="440" y="610" as="sourcePoint" />
            <mxPoint x="510" y="570" as="targetPoint" />
          </mxGeometry>
        </mxCell>
        <mxCell id="DSCQMobVuc5KohE75lGZ-16" value="&lt;font style=&quot;font-size: 80px;&quot;&gt;......&lt;/font&gt;" style="text;html=1;align=center;verticalAlign=middle;whiteSpace=wrap;rounded=0;" vertex="1" parent="1">
          <mxGeometry x="360" y="530" width="165" height="30" as="geometry" />
        </mxCell>
        <mxCell id="DSCQMobVuc5KohE75lGZ-17" value="" style="endArrow=classic;html=1;rounded=0;entryX=0.906;entryY=0.765;entryDx=0;entryDy=0;entryPerimeter=0;" edge="1" parent="1" target="DSCQMobVuc5KohE75lGZ-6">
          <mxGeometry width="50" height="50" relative="1" as="geometry">
            <mxPoint x="370" y="570" as="sourcePoint" />
            <mxPoint x="520" y="580" as="targetPoint" />
          </mxGeometry>
        </mxCell>
        <mxCell id="DSCQMobVuc5KohE75lGZ-18" value="&lt;b&gt;Prompt&lt;/b&gt;: Generate a dog image&lt;div&gt;&lt;b&gt;Input: ...&lt;/b&gt;&lt;/div&gt;&lt;div&gt;&lt;b&gt;Model&lt;/b&gt;: SD 2.0,&amp;nbsp;&lt;span style=&quot;background-color: initial;&quot;&gt;http://....&amp;nbsp;&lt;/span&gt;&lt;/div&gt;&lt;div&gt;&lt;b&gt;Weight address&lt;/b&gt;: http://....&amp;nbsp;&lt;/div&gt;&lt;div&gt;&lt;b&gt;Step: 20&lt;/b&gt;&lt;/div&gt;&lt;div&gt;&lt;b&gt;Gas&lt;/b&gt;: xx&lt;b&gt;&lt;br&gt;&lt;/b&gt;&lt;/div&gt;" style="text;html=1;align=left;verticalAlign=middle;whiteSpace=wrap;rounded=0;rotation=10;" vertex="1" parent="1">
          <mxGeometry x="180" y="470" width="180" height="80" as="geometry" />
        </mxCell>
        <mxCell id="DSCQMobVuc5KohE75lGZ-19" value="" style="endArrow=classic;html=1;rounded=0;entryX=0.229;entryY=0.91;entryDx=0;entryDy=0;entryPerimeter=0;exitX=0.5;exitY=0;exitDx=0;exitDy=0;" edge="1" parent="1" source="DSCQMobVuc5KohE75lGZ-6" target="DSCQMobVuc5KohE75lGZ-1">
          <mxGeometry width="50" height="50" relative="1" as="geometry">
            <mxPoint x="130" y="460" as="sourcePoint" />
            <mxPoint x="180" y="410" as="targetPoint" />
          </mxGeometry>
        </mxCell>
        <mxCell id="DSCQMobVuc5KohE75lGZ-20" value="&lt;b&gt;Prompt&lt;/b&gt;: Generate a dog image&lt;div&gt;&lt;b&gt;Input: &lt;font color=&quot;#00ff00&quot;&gt;Generated image&lt;/font&gt;&lt;/b&gt;&lt;/div&gt;&lt;div&gt;&lt;b&gt;Model&lt;/b&gt;: SD 2.0,&amp;nbsp;&lt;span style=&quot;background-color: initial;&quot;&gt;http://....&amp;nbsp;&lt;/span&gt;&lt;/div&gt;&lt;div&gt;&lt;b&gt;Weight address&lt;/b&gt;: http://....&amp;nbsp;&lt;/div&gt;&lt;div&gt;&lt;b&gt;Step: -1&lt;/b&gt;&lt;/div&gt;" style="text;html=1;align=left;verticalAlign=middle;whiteSpace=wrap;rounded=0;rotation=-45;" vertex="1" parent="1">
          <mxGeometry x="40" y="350" width="180" height="80" as="geometry" />
        </mxCell>
      </root>
    </mxGraphModel>
  </diagram>
</mxfile>
